<svg xmlns="http://www.w3.org/2000/svg" xmlns:xlink="http://www.w3.org/1999/xlink" width="500" zoomAndPan="magnify" viewBox="0 0 375 374.999991" height="500" preserveAspectRatio="xMidYMid meet" version="1.0"><defs><g/></defs><g fill="#234364" fill-opacity="1"><g transform="translate(-1.930819, 224.84502)"><g><path d="M 59.734375 0 L 48.359375 -39.90625 L 36.984375 0 L 18.96875 0 L -1.296875 -71.125 L 16.71875 -71.125 L 28.875 -22.328125 L 29.3125 -22.328125 L 42.234375 -71.125 L 54.484375 -71.125 L 67.40625 -22.328125 L 67.84375 -22.328125 L 80 -71.125 L 97.921875 -71.125 L 77.671875 0 Z M 59.734375 0 "/></g></g></g><g fill="#234364" fill-opacity="1"><g transform="translate(86.599079, 224.84502)"><g><path d="M 41.296875 -71.125 L 70 0 L 52.578125 0 L 47.328125 -14.21875 L 20.25 -14.21875 L 15 0 L -2.40625 0 L 26.296875 -71.125 Z M 41.8125 -28.453125 L 33.875 -49.140625 L 33.703125 -49.140625 L 25.78125 -28.453125 Z M 41.8125 -28.453125 "/></g></g></g><g fill="#234364" fill-opacity="1"><g transform="translate(146.078517, 224.84502)"><g><path d="M 59.828125 -71.125 L 59.828125 -25.25 C 59.828125 -16.519531 57.46875 -9.910156 52.75 -5.421875 C 48.039062 -0.941406 41.144531 1.296875 32.0625 1.296875 C 22.988281 1.296875 16.09375 -0.941406 11.375 -5.421875 C 6.664062 -9.910156 4.3125 -16.519531 4.3125 -25.25 L 4.3125 -71.125 L 20.515625 -71.125 L 20.515625 -30 C 20.515625 -24.25 21.421875 -20.253906 23.234375 -18.015625 C 25.046875 -15.773438 27.988281 -14.65625 32.0625 -14.65625 C 36.144531 -14.65625 39.09375 -15.773438 40.90625 -18.015625 C 42.71875 -20.253906 43.625 -24.25 43.625 -30 L 43.625 -71.125 Z M 59.828125 -71.125 "/></g></g></g><g fill="#234364" fill-opacity="1"><g transform="translate(202.109817, 224.84502)"><g><path d="M 22.5 14.90625 L 18.625 9.046875 C 18.789062 8.816406 19.015625 8.53125 19.296875 8.1875 C 19.585938 7.84375 20.191406 7.195312 21.109375 6.25 C 22.035156 5.300781 22.925781 4.46875 23.78125 3.75 C 24.644531 3.03125 25.648438 2.382812 26.796875 1.8125 C 27.953125 1.238281 29.019531 0.953125 30 0.953125 L 30 0.609375 C 21.601562 -1.003906 14.832031 -5.144531 9.6875 -11.8125 C 4.550781 -18.476562 1.984375 -26.410156 1.984375 -35.609375 C 1.984375 -45.953125 5.429688 -54.671875 12.328125 -61.765625 C 19.222656 -68.859375 27.582031 -72.40625 37.40625 -72.40625 C 47.289062 -72.40625 55.648438 -68.859375 62.484375 -61.765625 C 69.328125 -54.671875 72.75 -45.953125 72.75 -35.609375 C 72.75 -27.160156 70.476562 -19.71875 65.9375 -13.28125 C 61.40625 -6.84375 55.429688 -2.503906 48.015625 -0.265625 L 48.015625 0.09375 C 48.359375 0.09375 49.878906 0.363281 52.578125 0.90625 C 55.285156 1.445312 57.441406 1.71875 59.046875 1.71875 C 61.234375 1.71875 63.21875 1.328125 65 0.546875 C 66.78125 -0.222656 68.015625 -0.976562 68.703125 -1.71875 L 69.734375 -2.9375 L 74.828125 8.015625 C 74.710938 8.304688 74.523438 8.664062 74.265625 9.09375 C 74.003906 9.519531 73.414062 10.28125 72.5 11.375 C 71.582031 12.46875 70.5625 13.445312 69.4375 14.3125 C 68.3125 15.175781 66.816406 15.953125 64.953125 16.640625 C 63.085938 17.328125 61.09375 17.671875 58.96875 17.671875 C 55.457031 17.671875 51.171875 16.550781 46.109375 14.3125 C 41.054688 12.070312 36.691406 10.953125 33.015625 10.953125 C 31.003906 10.953125 29.117188 11.28125 27.359375 11.9375 C 25.609375 12.601562 24.363281 13.28125 23.625 13.96875 Z M 19.484375 -35.609375 C 19.484375 -32.847656 19.796875 -30.273438 20.421875 -27.890625 C 21.054688 -25.503906 22.050781 -23.332031 23.40625 -21.375 C 24.757812 -19.425781 26.625 -17.890625 29 -16.765625 C 31.382812 -15.640625 34.1875 -15.078125 37.40625 -15.078125 C 43.445312 -15.078125 47.929688 -17.03125 50.859375 -20.9375 C 53.785156 -24.851562 55.25 -29.742188 55.25 -35.609375 C 55.25 -41.410156 53.753906 -46.28125 50.765625 -50.21875 C 47.785156 -54.15625 43.332031 -56.125 37.40625 -56.125 C 31.550781 -56.125 27.097656 -54.140625 24.046875 -50.171875 C 21.003906 -46.203125 19.484375 -41.347656 19.484375 -35.609375 Z M 19.484375 -35.609375 "/></g></g></g><g fill="#234364" fill-opacity="1"><g transform="translate(268.744113, 224.84502)"><g><path d="M 21.375 -71.125 L 21.375 -14.21875 L 45.859375 -14.21875 L 45.859375 0 L 5.171875 0 L 5.171875 -71.125 Z M 21.375 -71.125 "/></g></g></g><g fill="#234364" fill-opacity="1"><g transform="translate(309.34507, 224.84502)"><g><path d="M 41.296875 -71.125 L 70 0 L 52.578125 0 L 47.328125 -14.21875 L 20.25 -14.21875 L 15 0 L -2.40625 0 L 26.296875 -71.125 Z M 41.8125 -28.453125 L 33.875 -49.140625 L 33.703125 -49.140625 L 25.78125 -28.453125 Z M 41.8125 -28.453125 "/></g></g></g></svg>